<?xml version="1.0" encoding="UTF-8" standalone="no"?>
<svg
   xmlns:dc="http://purl.org/dc/elements/1.1/"
   xmlns:cc="http://creativecommons.org/ns#"
   xmlns:rdf="http://www.w3.org/1999/02/22-rdf-syntax-ns#"
   xmlns:svg="http://www.w3.org/2000/svg"
   xmlns="http://www.w3.org/2000/svg"
   xmlns:xlink="http://www.w3.org/1999/xlink"
   xmlns:sodipodi="http://sodipodi.sourceforge.net/DTD/sodipodi-0.dtd"
   xmlns:inkscape="http://www.inkscape.org/namespaces/inkscape"
   width="24"
   height="24"
   version="1.1"
   id="svg30"
   sodipodi:docname="Help-browser.svg"
   inkscape:version="0.92.3 (2405546, 2018-03-11)">
  <metadata
     id="metadata34">
    <rdf:RDF>
      <cc:Work
         rdf:about="">
        <dc:format>image/svg+xml</dc:format>
        <dc:type
           rdf:resource="http://purl.org/dc/dcmitype/StillImage" />
        <dc:title></dc:title>
      </cc:Work>
    </rdf:RDF>
  </metadata>
  <sodipodi:namedview
     pagecolor="#ffffff"
     bordercolor="#666666"
     borderopacity="1"
     objecttolerance="10"
     gridtolerance="10"
     guidetolerance="10"
     inkscape:pageopacity="0"
     inkscape:pageshadow="2"
     inkscape:window-width="1366"
     inkscape:window-height="705"
     id="namedview32"
     showgrid="false"
     inkscape:snap-page="true"
     fit-margin-top="0"
     fit-margin-left="0"
     fit-margin-right="0"
     fit-margin-bottom="0"
     inkscape:zoom="4.9166667"
     inkscape:cx="24"
     inkscape:cy="36.517571"
     inkscape:window-x="-8"
     inkscape:window-y="-8"
     inkscape:window-maximized="1"
     inkscape:current-layer="svg30" />
  <defs
     id="defs20">
    <linearGradient
       id="c">
      <stop
         offset="0"
         stop-color="#fff"
         id="stop2" />
      <stop
         offset="1"
         stop-color="#b8b8b8"
         id="stop4" />
    </linearGradient>
    <linearGradient
       id="a">
      <stop
         offset="0"
         id="stop7" />
      <stop
         offset="1"
         stop-opacity="0"
         id="stop9" />
    </linearGradient>
    <radialGradient
       id="d"
       cx="25.125"
       cy="36.75"
       r="15.75"
       fx="25.125"
       fy="36.75"
       gradientTransform="matrix(1,0,0,0.59524,0,14.875)"
       gradientUnits="userSpaceOnUse"
       xlink:href="#a" />
    <linearGradient
       id="b">
      <stop
         offset="0"
         stop-color="#9cbcde"
         id="stop13" />
      <stop
         offset="1"
         stop-color="#204a87"
         id="stop15" />
    </linearGradient>
    <radialGradient
       id="e"
       cx="26.544001"
       cy="28.459"
       r="22.375999"
       fx="26.544001"
       fy="28.459"
       gradientTransform="matrix(1.23834,0.00595,-0.0065,1.35127,-6.993,-9.745)"
       gradientUnits="userSpaceOnUse"
       xlink:href="#b" />
    <radialGradient
       id="f"
       cx="-19.516001"
       cy="16.856001"
       r="8.7539997"
       fx="-19.516001"
       fy="16.856001"
       gradientTransform="matrix(4.446,0,0,6.8665,67.25,-104.668)"
       gradientUnits="userSpaceOnUse"
       xlink:href="#c" />
  </defs>
  <g
     id="g43"
     transform="scale(0.5)">
    <rect
       y="0"
       x="0"
       height="48"
       width="48"
       id="rect36"
       style="opacity:1;fill:#ff00ff;fill-opacity:1;stroke:none;stroke-width:3.77952766;stroke-linecap:butt;stroke-linejoin:miter;stroke-miterlimit:4;stroke-dasharray:none;stroke-opacity:1;paint-order:fill markers stroke" />
    <path
       id="path22"
       transform="matrix(1.1738,0,0,0.6,-5.004,20.325)"
       d="m 40.875,36.75 a 15.75,9.375 0 1 1 -31.5,0 15.75,9.375 0 1 1 31.5,0 z"
       style="color:#000000;opacity:0.631;fill:url(#d);fill-rule:evenodd;marker:none"
       inkscape:connector-curvature="0" />
    <path
       id="path24"
       transform="matrix(0.93844,0,0,0.93868,1.564,1.634)"
       d="m 45.785164,23.825787 a 21.876116,21.876116 0 1 1 -43.7522317,0 21.876116,21.876116 0 1 1 43.7522317,0 z"
       style="fill:url(#e);stroke:#204a87"
       inkscape:connector-curvature="0" />
    <path
       id="path26"
       transform="matrix(0.8551,0,0,0.85521,3.555,3.625)"
       d="m 45.785164,23.825787 a 21.876116,21.876116 0 1 1 -43.7522317,0 21.876116,21.876116 0 1 1 43.7522317,0 z"
       inkscape:connector-curvature="0"
       style="opacity:0.95999995;fill:none;stroke:#ffffff;stroke-width:3.0309999" />
    <path
       id="path28"
       transform="matrix(0.8499,0,0,0.8352,41.73,8.548)"
       d="m -20.25,5.875 c -1.059019,2.63e-5 -2.147637,0.1232356 -3.28125,0.34375 -1.132925,0.2204283 -2.380162,0.5375125 -3.75,1 -0.01038,-0.00121 -0.02087,-0.00121 -0.03125,0 -0.01206,0.00863 -0.02262,0.019187 -0.03125,0.03125 -0.01206,0.00863 -0.02262,0.019187 -0.03125,0.03125 -0.0012,0.010382 -0.0012,0.020868 0,0.03125 -0.0012,0.010382 -0.0012,0.020868 0,0.03125 V 12.5 c -0.0012,0.01038 -0.0012,0.02087 0,0.03125 -0.0012,0.01038 -0.0012,0.02087 0,0.03125 0.0086,0.01206 0.01919,0.02262 0.03125,0.03125 0.0086,0.01206 0.01919,0.02262 0.03125,0.03125 0.01038,0.0012 0.02087,0.0012 0.03125,0 0.01038,0.0012 0.02087,0.0012 0.03125,0 0.01038,0.0012 0.02087,0.0012 0.03125,0 0.01038,0.0012 0.02087,0.0012 0.03125,0 1.142438,-0.719043 2.233352,-1.267138 3.28125,-1.625 1.048141,-0.368756 2.043116,-0.562479 2.9375,-0.5625 0.949218,2.1e-5 1.644925,0.210545 2.15625,0.625 0.508723,0.40209 0.781238,0.98304 0.78125,1.71875 -10e-6,0.480657 -0.144188,0.95141 -0.4375,1.4375 -0.282991,0.487016 -0.740265,1.030495 -1.375,1.59375 L -20.9375,16.75 c -1.201459,1.08049 -1.989243,1.991022 -2.375,2.71875 -0.383113,0.711446 -0.562505,1.519324 -0.5625,2.4375 v 0.8125 c -0.0012,0.01038 -0.0012,0.02087 0,0.03125 -0.0012,0.01038 -0.0012,0.02087 0,0.03125 0.0086,0.01206 0.01919,0.02262 0.03125,0.03125 0.0086,0.01206 0.01919,0.02262 0.03125,0.03125 0.01038,0.0012 0.02087,0.0012 0.03125,0 0.01038,0.0012 0.02087,0.0012 0.03125,0 h 6.09375 c 0.01038,0.0012 0.02087,0.0012 0.03125,0 0.01038,0.0012 0.02087,0.0012 0.03125,0 0.01206,-0.0086 0.02262,-0.01919 0.03125,-0.03125 0.01206,-0.0086 0.02262,-0.01919 0.03125,-0.03125 0.0012,-0.01038 0.0012,-0.02087 0,-0.03125 0.0012,-0.01038 0.0012,-0.02087 0,-0.03125 v -0.75 c -1.1e-5,-0.468196 0.14837,-0.892849 0.375,-1.28125 0.222295,-0.391284 0.708073,-0.950359 1.46875,-1.625 l 1.0625,-0.9375 c 1.066588,-0.98231 1.830659,-1.884654 2.28125,-2.75 0.449269,-0.874046 0.687482,-1.87342 0.6875,-2.96875 -1.8e-5,-2.126265 -0.743769,-3.7340276 -2.21875,-4.84375 -1.475197,-1.1210252 -3.60624,-1.6874737 -6.375,-1.6875 z m -3.5625,19.15625 c -0.01206,0.0086 -0.02262,0.01919 -0.03125,0.03125 -0.01206,0.0086 -0.02262,0.01919 -0.03125,0.03125 -0.0012,0.01038 -0.0012,0.02087 0,0.03125 -0.0012,0.01038 -0.0012,0.02087 0,0.03125 V 31 c -0.0012,0.01038 -0.0012,0.02087 0,0.03125 -0.0012,0.01038 -0.0012,0.02087 0,0.03125 0.0086,0.01206 0.01919,0.02262 0.03125,0.03125 0.0086,0.01206 0.01919,0.02262 0.03125,0.03125 0.01038,0.0012 0.02087,0.0012 0.03125,0 0.01038,0.0012 0.02087,0.0012 0.03125,0 h 6.09375 c 0.01038,0.0012 0.02087,0.0012 0.03125,0 0.01038,0.0012 0.02087,0.0012 0.03125,0 0.01206,-0.0086 0.02262,-0.01919 0.03125,-0.03125 0.01206,-0.0086 0.02262,-0.01919 0.03125,-0.03125 0.0012,-0.01038 0.0012,-0.02087 0,-0.03125 0.0012,-0.01038 0.0012,-0.02087 0,-0.03125 v -5.84375 c 0.0012,-0.01038 0.0012,-0.02087 0,-0.03125 0.0012,-0.01038 0.0012,-0.02087 0,-0.03125 -0.0086,-0.01206 -0.01919,-0.02262 -0.03125,-0.03125 -0.0086,-0.01206 -0.01919,-0.02262 -0.03125,-0.03125 -0.01038,-0.0012 -0.02087,-0.0012 -0.03125,0 -0.01038,-0.0012 -0.02087,-0.0012 -0.03125,0 H -23.75 c -0.01038,-0.0012 -0.02087,-0.0012 -0.03125,0 -0.01038,-0.0012 -0.02087,-0.0012 -0.03125,0 z"
       style="line-height:125%;text-align:start;fill:url(#f);stroke:#ffffff;stroke-width:1.09899998;stroke-opacity:0.78600003"
       inkscape:connector-curvature="0" />
  </g>
</svg>
