<?xml version="1.0" encoding="UTF-8" standalone="no"?>
<!-- Created with Inkscape (http://www.inkscape.org/) -->

<svg
   xmlns:dc="http://purl.org/dc/elements/1.1/"
   xmlns:cc="http://creativecommons.org/ns#"
   xmlns:rdf="http://www.w3.org/1999/02/22-rdf-syntax-ns#"
   xmlns:svg="http://www.w3.org/2000/svg"
   xmlns="http://www.w3.org/2000/svg"
   xmlns:xlink="http://www.w3.org/1999/xlink"
   xmlns:sodipodi="http://sodipodi.sourceforge.net/DTD/sodipodi-0.dtd"
   xmlns:inkscape="http://www.inkscape.org/namespaces/inkscape"
   id="svg249"
   height="24"
   width="24"
   version="1.1"
   sodipodi:docname="Refresh_file.svg"
   inkscape:version="0.92.3 (2405546, 2018-03-11)">
  <metadata
     id="metadata82">
    <rdf:RDF>
      <cc:Work
         rdf:about="">
        <dc:format>image/svg+xml</dc:format>
        <dc:type
           rdf:resource="http://purl.org/dc/dcmitype/StillImage" />
        <dc:title></dc:title>
      </cc:Work>
    </rdf:RDF>
  </metadata>
  <sodipodi:namedview
     pagecolor="#ffffff"
     bordercolor="#666666"
     borderopacity="1"
     objecttolerance="10"
     gridtolerance="10"
     guidetolerance="10"
     inkscape:pageopacity="0"
     inkscape:pageshadow="2"
     inkscape:window-width="1366"
     inkscape:window-height="705"
     id="namedview80"
     showgrid="false"
     inkscape:snap-page="true"
     fit-margin-top="0"
     fit-margin-left="0"
     fit-margin-right="0"
     fit-margin-bottom="0"
     inkscape:zoom="4.9166667"
     inkscape:cx="24"
     inkscape:cy="24"
     inkscape:window-x="-8"
     inkscape:window-y="-8"
     inkscape:window-maximized="1"
     inkscape:current-layer="svg249" />
  <defs
     id="defs3">
    <radialGradient
       id="radialGradient15656"
       gradientUnits="userSpaceOnUse"
       cy="3.7560999"
       cx="8.8243999"
       gradientTransform="matrix(0.96827,0,0,1.0328,3.3536,0.64645)"
       r="37.751999">
      <stop
         id="stop270"
         stop-color="#a3a3a3"
         offset="0" />
      <stop
         id="stop271"
         stop-color="#4c4c4c"
         offset="1" />
    </radialGradient>
    <radialGradient
       id="radialGradient15658"
       gradientUnits="userSpaceOnUse"
       cy="35.737"
       cx="33.966999"
       gradientTransform="scale(0.96049,1.0411)"
       r="86.708">
      <stop
         id="stop260"
         stop-color="#fafafa"
         offset="0" />
      <stop
         id="stop261"
         stop-color="#bbb"
         offset="1" />
    </radialGradient>
    <radialGradient
       id="radialGradient15668"
       gradientUnits="userSpaceOnUse"
       cy="7.2679"
       cx="8.1436005"
       gradientTransform="matrix(0.96827,0,0,1.0328,3.3536,0.64645)"
       r="38.159">
      <stop
         id="stop15664"
         stop-color="#fff"
         offset="0" />
      <stop
         id="stop15666"
         stop-color="#f8f8f8"
         offset="1" />
    </radialGradient>
    <radialGradient
       id="radialGradient4548"
       gradientUnits="userSpaceOnUse"
       cy="42.077999"
       cx="24.306999"
       gradientTransform="matrix(1,0,0,0.28492,0,30.089)"
       r="15.822">
      <stop
         id="stop4544"
         offset="0" />
      <stop
         id="stop4546"
         stop-opacity="0"
         offset="1" />
    </radialGradient>
    <linearGradient
       id="linearGradient2696"
       y2="24.841999"
       gradientUnits="userSpaceOnUse"
       x2="37.124001"
       y1="30.749001"
       x1="32.647999">
      <stop
         id="stop2692"
         stop-color="#c4d7eb"
         offset="0" />
      <stop
         id="stop2694"
         stop-color="#c4d7eb"
         stop-opacity="0"
         offset="1" />
    </linearGradient>
    <linearGradient
       id="linearGradient2688"
       y2="24.841999"
       gradientUnits="userSpaceOnUse"
       x2="37.124001"
       y1="31.455999"
       x1="36.714001">
      <stop
         id="stop2684"
         stop-color="#3977c3"
         offset="0" />
      <stop
         id="stop2686"
         stop-color="#89aedc"
         stop-opacity="0"
         offset="1" />
    </linearGradient>
    <linearGradient
       id="linearGradient2408"
       y2="26.649"
       xlink:href="#linearGradient2402"
       gradientUnits="userSpaceOnUse"
       x2="53.589001"
       y1="23.667999"
       x1="18.936001" />
    <linearGradient
       id="linearGradient2386"
       y2="20.608999"
       xlink:href="#linearGradient2380"
       gradientUnits="userSpaceOnUse"
       x2="15.985"
       y1="36.061001"
       x1="62.514" />
    <radialGradient
       id="radialGradient1503"
       gradientUnits="userSpaceOnUse"
       cy="36.421001"
       cx="24.837"
       gradientTransform="matrix(1,0,0,0.53672,0,16.873)"
       r="15.645">
      <stop
         id="stop8664"
         offset="0" />
      <stop
         id="stop8666"
         stop-opacity="0"
         offset="1" />
    </radialGradient>
    <linearGradient
       id="linearGradient1501"
       y2="50.939999"
       xlink:href="#linearGradient2871"
       gradientUnits="userSpaceOnUse"
       x2="45.380001"
       y1="45.264"
       x1="46.834999" />
    <linearGradient
       id="linearGradient1493"
       y2="26.048"
       xlink:href="#linearGradient2797"
       gradientUnits="userSpaceOnUse"
       x2="52.854"
       y1="26.048"
       x1="5.9649" />
    <linearGradient
       id="linearGradient1488"
       y2="26.194"
       gradientUnits="userSpaceOnUse"
       x2="37.064999"
       gradientTransform="rotate(180,23.764,22.9235)"
       y1="29.73"
       x1="37.127998">
      <stop
         id="stop2849"
         stop-color="#3465a4"
         offset="0" />
      <stop
         id="stop2851"
         stop-color="#3465a4"
         stop-opacity="0"
         offset="1" />
    </linearGradient>
    <linearGradient
       id="linearGradient1486"
       y2="19.115"
       gradientUnits="userSpaceOnUse"
       x2="15.419"
       gradientTransform="translate(0.46541,-0.27759)"
       y1="10.612"
       x1="13.479">
      <stop
         id="stop2833"
         stop-color="#3465a4"
         offset="0" />
      <stop
         id="stop2855"
         stop-color="#5b86be"
         offset=".33333" />
      <stop
         id="stop2835"
         stop-color="#83a8d8"
         stop-opacity="0"
         offset="1" />
    </linearGradient>
    <linearGradient
       id="linearGradient2797">
      <stop
         id="stop2799"
         stop-color="#fff"
         offset="0" />
      <stop
         id="stop2801"
         stop-color="#fff"
         stop-opacity="0"
         offset="1" />
    </linearGradient>
    <linearGradient
       id="linearGradient2871">
      <stop
         id="stop2873"
         stop-color="#3465a4"
         offset="0" />
      <stop
         id="stop2875"
         stop-color="#3465a4"
         offset="1" />
    </linearGradient>
    <linearGradient
       id="linearGradient2380">
      <stop
         id="stop2382"
         stop-color="#b9cfe7"
         offset="0" />
      <stop
         id="stop2384"
         stop-color="#729fcf"
         offset="1" />
    </linearGradient>
    <linearGradient
       id="linearGradient2402">
      <stop
         id="stop2404"
         stop-color="#729fcf"
         offset="0" />
      <stop
         id="stop2406"
         stop-color="#528ac5"
         offset="1" />
    </linearGradient>
    <radialGradient
       id="radialGradient3978"
       gradientUnits="userSpaceOnUse"
       cy="64.568001"
       cx="20.892"
       gradientTransform="matrix(0.29695,0,0,0.29695,3.6844,-0.53993)"
       r="5.257">
      <stop
         id="stop15573"
         stop-color="#f0f0f0"
         offset="0" />
      <stop
         id="stop15575"
         stop-color="#9a9a9a"
         offset="1" />
    </radialGradient>
    <radialGradient
       id="radialGradient3981"
       gradientUnits="userSpaceOnUse"
       cy="114.57"
       cx="20.892"
       gradientTransform="matrix(0.30368,0,0,0.30368,3.5269,-4.6868)"
       r="5.256">
      <stop
         id="stop15566"
         stop-color="#f0f0f0"
         offset="0" />
      <stop
         id="stop15568"
         stop-color="#9a9a9a"
         offset="1" />
    </radialGradient>
    <linearGradient
       inkscape:collect="always"
       xlink:href="#linearGradient2380"
       id="linearGradient115"
       gradientUnits="userSpaceOnUse"
       x1="62.514"
       y1="36.061001"
       x2="15.985"
       y2="20.608999" />
    <linearGradient
       inkscape:collect="always"
       xlink:href="#linearGradient2871"
       id="linearGradient117"
       gradientUnits="userSpaceOnUse"
       x1="46.834999"
       y1="45.264"
       x2="45.380001"
       y2="50.939999" />
    <linearGradient
       inkscape:collect="always"
       xlink:href="#linearGradient2402"
       id="linearGradient119"
       gradientUnits="userSpaceOnUse"
       x1="18.936001"
       y1="23.667999"
       x2="53.589001"
       y2="26.649" />
    <linearGradient
       inkscape:collect="always"
       xlink:href="#linearGradient2871"
       id="linearGradient121"
       gradientUnits="userSpaceOnUse"
       x1="46.834999"
       y1="45.264"
       x2="45.380001"
       y2="50.939999" />
    <linearGradient
       inkscape:collect="always"
       xlink:href="#linearGradient2797"
       id="linearGradient123"
       gradientUnits="userSpaceOnUse"
       x1="5.9649"
       y1="26.048"
       x2="52.854"
       y2="26.048" />
  </defs>
  <g
     id="g113"
     transform="scale(0.5)">
    <rect
       y="0"
       x="0"
       height="48"
       width="48"
       id="rect84"
       style="opacity:1;fill:#ff00ff;fill-opacity:1;stroke:none;stroke-width:3.77952766;stroke-linecap:butt;stroke-linejoin:miter;stroke-miterlimit:4;stroke-dasharray:none;stroke-opacity:1;paint-order:fill markers stroke" />
    <g
       id="layer6">
      <path
         transform="translate(0,0.70711)"
         d="m 40.128,42.078 a 15.822,4.5078 0 1 1 -31.643,0 15.822,4.5078 0 1 1 31.643,0 z"
         style="color:#000000;opacity:0.78363001;fill:url(#radialGradient4548);fill-rule:evenodd"
         id="path3667"
         inkscape:connector-curvature="0" />
    </g>
    <g
       id="layer1">
      <rect
         x="6.6036"
         y="3.6464"
         width="34.875"
         height="40.919998"
         ry="1.149"
         display="block"
         style="color:#000000;display:block;fill:url(#radialGradient15658);stroke:url(#radialGradient15656);stroke-linecap:round;stroke-linejoin:round"
         id="rect15391" />
      <rect
         x="7.6661"
         y="4.5839"
         width="32.776001"
         height="38.945999"
         ry="0.14905"
         rx="0.14905"
         display="block"
         style="color:#000000;display:block;fill:none;stroke:url(#radialGradient15668);stroke-linecap:round;stroke-linejoin:round"
         id="rect15660" />
      <path
         d="m 10.995,30.18 c 0,0.453 -0.368,0.82 -0.821,0.82 -0.4532,0 -0.8204,-0.368 -0.8204,-0.82 0,-0.45343 0.36752,-0.82073 0.82073,-0.82073 0.4532,0 0.82073,0.36752 0.82073,0.82073 z"
         id="path1448"
         inkscape:connector-curvature="0"
         style="fill:#ffffff" />
      <path
         d="m 10.995,18.694 c 0,0.4532 -0.36752,0.82073 -0.82073,0.82073 -0.45343,0 -0.82073,-0.36752 -0.82073,-0.82073 0,-0.45343 0.36752,-0.82073 0.82073,-0.82073 0.4532,0 0.82073,0.36752 0.82073,0.82073 z"
         id="path1456"
         inkscape:connector-curvature="0"
         style="fill:#ffffff" />
      <path
         d="m 10.641,29.65 c 0,0.59916 -0.48588,1.0847 -1.085,1.0847 -0.59946,0 -1.085,-0.48588 -1.085,-1.0847 0,-0.59946 0.48588,-1.085 1.085,-1.085 0.59916,0 1.085,0.48588 1.085,1.085 z"
         id="path15570"
         style="fill:url(#radialGradient3981);stroke:#000000;stroke-width:0.1"
         inkscape:connector-curvature="0" />
      <path
         d="m 10.641,18.189 c 0,0.58589 -0.47512,1.061 -1.061,1.061 -0.58619,0 -1.061,-0.47512 -1.061,-1.061 0,-0.58619 0.47512,-1.061 1.061,-1.061 0.58589,0 1.061,0.47512 1.061,1.061 z"
         id="path15577"
         style="fill:url(#radialGradient3978);stroke:#000000;stroke-width:0.1"
         inkscape:connector-curvature="0" />
      <path
         d="m 11.506,5.4943 v 37.907"
         id="path15672"
         inkscape:connector-curvature="0"
         style="fill:none;stroke:#000000;stroke-width:0.98855001;stroke-opacity:0.01754402" />
      <path
         d="m 12.5,5.0205 v 38.018"
         id="path15674"
         inkscape:connector-curvature="0"
         style="fill:none;stroke:#ffffff;stroke-opacity:0.20468002" />
    </g>
    <g
       id="layer5">
      <g
         transform="matrix(0.70517,0,0,0.66345,8.2759,9.5792)"
         id="layer1-8">
        <path
           transform="matrix(-1.4897,0,0,-1.0013,61.209,75.282)"
           d="m 40.482,36.421 a 15.645,8.3969 0 1 1 -31.289,0 15.645,8.3969 0 1 1 31.289,0 z"
           style="color:#000000;opacity:0.38332998;fill:url(#radialGradient1503);fill-rule:evenodd"
           id="path8660"
           inkscape:connector-curvature="0" />
        <path
           display="block"
           d="m 20.153,10.41 c 0,0 -8.9375,-0.625 -6.1875,9.875 H 6.278 c 0,0 0.5,-11.875 13.875,-9.875 z"
           style="color:#000000;display:block;fill:url(#linearGradient1486);stroke:url(#linearGradient1488)"
           id="path2865"
           inkscape:connector-curvature="0" />
        <g
           transform="matrix(-0.57905,-0.48923,-0.48923,0.57905,56.916,13.371)"
           id="g1878"
           style="fill:url(#linearGradient2386);stroke:#3465a4">
          <path
             display="block"
             d="M 44.307,50.23 C 62.821,35.819 49.665,13.412 22.462,12.498 l -0.348,-9.3465 -14.49,17.346 15.09,12.721 c 0,0 -0.25192,-9.8812 -0.25192,-9.8812 18.83,0.99898 32.982,14.072 21.844,26.892 z"
             style="color:#000000;display:block;fill:url(#linearGradient115);stroke:url(#linearGradient117);stroke-width:1.31920004"
             id="path1880"
             inkscape:connector-curvature="0" />
        </g>
        <path
           display="block"
           d="m 28.375,33.438 c 0,0 8.9375,0.625 6.1875,-9.875 h 7.7759 c 0,1.5026 -0.58839,11.875 -13.963,9.875 z"
           style="color:#000000;display:block;fill:url(#linearGradient2696);stroke:url(#linearGradient2688)"
           id="path2839"
           inkscape:connector-curvature="0" />
        <g
           transform="matrix(0.57905,0.48923,0.48923,-0.57905,-7.921,30.536)"
           display="block"
           style="color:#000000;display:block;fill:url(#linearGradient2408);stroke:url(#linearGradient1501);stroke-width:1.31920004"
           id="g2779">
          <path
             display="block"
             d="M 44.307,50.23 C 62.821,35.819 49.665,13.412 22.462,12.498 L 22.399,3.069 7.794,20.424 22.462,33.006 v -9.6684 c 18.83,0.99898 32.982,14.072 21.844,26.892 z"
             style="color:#000000;display:block;fill:url(#linearGradient119);stroke:url(#linearGradient121);stroke-width:1.31920004"
             id="path2781"
             inkscape:connector-curvature="0" />
        </g>
        <path
           d="M 7.0625,38.188 7.125,23.313 20.063,22.938 15.6741,28.1168 19.5413,30.49 c -3,2.25 -4.5495,2.4221 -5.5495,4.9846 l -2.818,-2.111 -4.1115,4.824 z"
           style="color:#000000;opacity:0.27222003;fill:#ffffff"
           id="path2791"
           inkscape:connector-curvature="0" />
        <g
           transform="matrix(0.50854,0.42965,0.42965,-0.50854,-3.9732,30.541)"
           id="g2793"
           style="opacity:0.5;fill:none;stroke:#ffffff">
          <path
             display="block"
             d="M 51.09,45.944 C 60.21,30.724 46.632,12.201 19.485,11.949 l 0.028,-8.2457 -12.979,15.594 12.834,10.972 c 0,0 0.05562,-9.0069 0.05562,-9.0069 17.528,-0.22391 35.195,10.103 31.667,24.682 z"
             style="color:#000000;display:block;fill:none;stroke:url(#linearGradient123);stroke-width:1.50209999"
             id="path2795"
             inkscape:connector-curvature="0" />
        </g>
        <g
           transform="matrix(-0.50854,-0.42965,-0.42965,0.50854,53.049,13.365)"
           id="g2805"
           style="opacity:0.5;fill:none;stroke:#ffffff">
          <path
             display="block"
             d="M 51.39,46.506 C 60.51,31.286 47.051,12.432 19.628,12.07 L 19.343,4.0507 6.341,19.3787 19.809,30.7647 19.62724,21.3115 c 18.245,0.38197 34.784,10.925 31.763,25.195 z"
             style="color:#000000;display:block;fill:none;stroke:url(#linearGradient1493);stroke-width:1.50209999"
             id="path2807"
             inkscape:connector-curvature="0" />
        </g>
        <path
           d="m 6.8125,16.5 c 3.5935,-10.441 16.444,-6.145 20.188,-4.5 4.175,0.211 5.675,-2.835 9,-3 -14.05,-9.79 -28.812,-6.5 -29.188,7.5 z"
           style="color:#000000;opacity:0.27222003;fill:#ffffff"
           id="path2811"
           inkscape:connector-curvature="0" />
      </g>
    </g>
  </g>
</svg>
