<?xml version="1.0" encoding="UTF-8" standalone="no"?>
<svg
   xmlns:dc="http://purl.org/dc/elements/1.1/"
   xmlns:cc="http://creativecommons.org/ns#"
   xmlns:rdf="http://www.w3.org/1999/02/22-rdf-syntax-ns#"
   xmlns:svg="http://www.w3.org/2000/svg"
   xmlns="http://www.w3.org/2000/svg"
   xmlns:sodipodi="http://sodipodi.sourceforge.net/DTD/sodipodi-0.dtd"
   xmlns:inkscape="http://www.inkscape.org/namespaces/inkscape"
   width="24"
   height="24"
   version="1.1"
   id="svg63"
   sodipodi:docname="System-search.svg"
   inkscape:version="0.92.3 (2405546, 2018-03-11)">
  <metadata
     id="metadata67">
    <rdf:RDF>
      <cc:Work
         rdf:about="">
        <dc:format>image/svg+xml</dc:format>
        <dc:type
           rdf:resource="http://purl.org/dc/dcmitype/StillImage" />
        <dc:title></dc:title>
      </cc:Work>
    </rdf:RDF>
  </metadata>
  <sodipodi:namedview
     pagecolor="#ffffff"
     bordercolor="#666666"
     borderopacity="1"
     objecttolerance="10"
     gridtolerance="10"
     guidetolerance="10"
     inkscape:pageopacity="0"
     inkscape:pageshadow="2"
     inkscape:window-width="1366"
     inkscape:window-height="705"
     id="namedview65"
     showgrid="false"
     inkscape:snap-page="true"
     fit-margin-top="0"
     fit-margin-left="0"
     fit-margin-right="0"
     fit-margin-bottom="0"
     inkscape:zoom="4.9166667"
     inkscape:cx="24"
     inkscape:cy="24"
     inkscape:window-x="-8"
     inkscape:window-y="-8"
     inkscape:window-maximized="1"
     inkscape:current-layer="svg63" />
  <defs
     id="defs41">
    <linearGradient
       id="k"
       y2="30.6"
       gradientUnits="userSpaceOnUse"
       x2="31.299999"
       y1="23.35"
       x1="27.01">
      <stop
         stop-color="#8a8a8a"
         offset="0"
         id="stop2" />
      <stop
         stop-color="#484848"
         offset="1"
         id="stop4" />
    </linearGradient>
    <linearGradient
       id="SVGID_3_"
       y2="55.650002"
       gradientUnits="userSpaceOnUse"
       x2="-144.3"
       gradientTransform="matrix(1.335,0,0,-1.291,229.6,104.1)"
       y1="52.709999"
       x1="-146.89999">
      <stop
         stop-color="#7d7d7d"
         offset="0"
         id="stop7" />
      <stop
         stop-color="#b1b1b1"
         offset=".5"
         id="stop9" />
      <stop
         stop-color="#686868"
         offset="1"
         id="stop11" />
    </linearGradient>
    <linearGradient
       id="c"
       y2="25.860001"
       gradientUnits="userSpaceOnUse"
       x2="17.83"
       y1="10.73"
       x1="18.809999">
      <stop
         stop-color="#fff"
         offset="0"
         id="stop14" />
      <stop
         stop-color="#fff"
         stop-opacity=".22"
         offset=".5"
         id="stop16" />
      <stop
         stop-color="#fff"
         offset="1"
         id="stop18" />
    </linearGradient>
    <radialGradient
       id="r"
       gradientUnits="userSpaceOnUse"
       cy="81.5"
       cx="-171.7"
       gradientTransform="matrix(1.399,0,0,-1.399,259.5,136.2)"
       r="8.3100004">
      <stop
         stop-color="#729fcf"
         stop-opacity=".21"
         offset="0"
         id="stop21" />
      <stop
         stop-color="#729fcf"
         stop-opacity=".68"
         offset="1"
         id="stop23" />
    </radialGradient>
    <radialGradient
       id="b"
       gradientUnits="userSpaceOnUse"
       cy="-511.60001"
       cx="-174.5"
       gradientTransform="matrix(1.446,0,0,-0.362,276.2,-145.1)"
       r="16.530001">
      <stop
         offset="0"
         id="stop26" />
      <stop
         stop-opacity="0"
         offset="1"
         id="stop28" />
    </radialGradient>
    <radialGradient
       id="g"
       gradientUnits="userSpaceOnUse"
       cy="166.39999"
       cx="-296.79999"
       gradientTransform="matrix(2.593,0,0,-2.252,784.6,385.3)"
       r="6.6599998">
      <stop
         stop-color="#fff"
         offset="0"
         id="stop31" />
      <stop
         stop-color="#fff"
         stop-opacity=".25"
         offset="1"
         id="stop33" />
    </radialGradient>
    <radialGradient
       id="s"
       gradientUnits="userSpaceOnUse"
       cy="-1674"
       cx="314.89999"
       gradientTransform="matrix(0.498,0,0,-0.145,-135.8,-204.1)"
       r="16.530001">
      <stop
         stop-color="#fff"
         offset="0"
         id="stop36" />
      <stop
         stop-color="#fff"
         stop-opacity="0"
         offset="1"
         id="stop38" />
    </radialGradient>
  </defs>
  <g
     id="g82"
     transform="scale(0.5)">
    <rect
       y="0"
       x="0"
       height="48"
       width="48"
       id="rect69"
       style="opacity:1;fill:#ff00ff;fill-opacity:1;stroke:none;stroke-width:3.77952766;stroke-linecap:butt;stroke-linejoin:miter;stroke-miterlimit:4;stroke-dasharray:none;stroke-opacity:1;paint-order:fill markers stroke" />
    <ellipse
       id="ellipse43"
       cx="23.92"
       cy="39.959999"
       ry="5.98"
       rx="23.9"
       style="opacity:0.17000002;fill:url(#b)" />
    <g
       id="g49"
       style="fill:#dcdcdc">
      <path
         id="path45"
         d="m 18.63,3.14 c -8.14,0 -14.75,6.61 -14.75,14.75 0,8.14 6.61,14.74 14.75,14.74 3.48,0 6.55,-1.38 9.1,-3.4 -0.2,1 -0.08,2.04 0.76,2.76 l 10.96,9.53 c 1.23,1.07 3.09,0.93 4.16,-0.3 1.07,-1.24 0.93,-3.09 -0.3,-4.16 L 32.34,27.53 c -0.67,-0.58 -1.49,-0.76 -2.3,-0.64 1.98,-2.52 3.36,-5.55 3.36,-9 C 33.4,9.75 26.8,3.14 18.66,3.14 Z m -0.08,1.23 c 7.64,0 13.29,4.79 13.29,13.29 0,8.68 -5.81,13.29 -13.29,13.29 -7.3,0 -13.29,-5.47 -13.29,-13.29 0,-7.98 5.82,-13.29 13.29,-13.29 z"
         style="stroke:url(#k);stroke-width:2;stroke-linecap:round"
         inkscape:connector-curvature="0" />
      <path
         id="path47"
         d="m 18.6,3.08 c -8.16,0 -14.79,6.63 -14.79,14.79 0,8.17 6.63,14.8 14.79,14.8 3.49,0 6.58,-1.39 9.11,-3.42 -0.21,1 -0.08,2.04 0.75,2.77 l 11,9.56 c 1.24,1.07 3.1,0.93 4.18,-0.3 1.07,-1.24 0.93,-3.1 -0.31,-4.18 l -11,-9.56 C 31.66,26.96 30.84,26.79 30.02,26.9 32.01,24.38 33.4,21.33 33.4,17.9 33.4,9.74 26.77,3.11 18.6,3.11 M 18.53,6.3 c 6.28,0 11.38,5.09 11.38,11.38 0,6.28 -5.1,11.37 -11.38,11.37 -6.28,0 -11.38,-5.09 -11.38,-11.37 0,-6.29 5.1,-11.38 11.38,-11.38"
         inkscape:connector-curvature="0" />
    </g>
    <path
       id="path51"
       d="M 39.51,41.58 C 39.03,39.3 40.9,36.77 43.09,36.79 L 32.33,27.53 c -2.94,-0.06 -4.27,2.27 -3.78,4.6 l 10.96,9.45"
       style="fill:url(#SVGID_3_)"
       inkscape:connector-curvature="0" />
    <circle
       id="circle53"
       r="13.77"
       cx="18.379999"
       cy="17.4"
       style="fill:none;stroke:url(#c)" />
    <ellipse
       id="ellipse55"
       cx="20.99"
       cy="38.77"
       ry="2.4000001"
       rx="8.2299995"
       style="fill:url(#s)" />
    <circle
       id="circle57"
       r="11.62"
       cx="18.379999"
       cy="17.549999"
       style="fill:url(#r);stroke:#3063a3" />
    <path
       id="path59"
       d="m 18.2,7.4 c -5.21,0 -9.43,4.21 -9.43,9.42 0,1.51 0.42,2.89 1.05,4.15 1.25,0.46 2.58,0.78 3.99,0.78 6.18,0 11.1,-4.86 11.48,-10.94 C 23.56,8.76 21.08,7.4 18.2,7.4"
       style="opacity:0.82999998;fill:url(#g)"
       inkscape:connector-curvature="0" />
    <rect
       id="rect61"
       x="40.5"
       y="-0.13"
       width="19"
       height="5"
       transform="matrix(0.753,0.658,-0.6489,0.7609,0,0)"
       rx="2.4679999"
       style="opacity:0.43000004;fill:none;stroke:#ffffff" />
  </g>
</svg>
