<?xml version="1.0" encoding="UTF-8" standalone="no"?>
<!-- Created with Inkscape (http://www.inkscape.org/) -->

<svg
   xmlns:dc="http://purl.org/dc/elements/1.1/"
   xmlns:cc="http://creativecommons.org/ns#"
   xmlns:rdf="http://www.w3.org/1999/02/22-rdf-syntax-ns#"
   xmlns:svg="http://www.w3.org/2000/svg"
   xmlns="http://www.w3.org/2000/svg"
   xmlns:xlink="http://www.w3.org/1999/xlink"
   xmlns:sodipodi="http://sodipodi.sourceforge.net/DTD/sodipodi-0.dtd"
   xmlns:inkscape="http://www.inkscape.org/namespaces/inkscape"
   inkscape:export-ydpi="90.000000"
   inkscape:export-xdpi="90.000000"
   inkscape:export-filename="/home/jimmac/Desktop/wi-fi.png"
   width="24"
   height="24"
   id="svg11300"
   sodipodi:version="0.32"
   inkscape:version="0.92.3 (2405546, 2018-03-11)"
   sodipodi:docname="Tools-spanner-hammer.svg"
   version="1.1">
  <defs
     id="defs3">
    <linearGradient
       id="linearGradient3805">
      <stop
         style="stop-color:#c27e13;stop-opacity:1;"
         offset="0"
         id="stop3807" />
      <stop
         id="stop3813"
         offset="0.26878971"
         style="stop-color:#c27e13;stop-opacity:0.49803922;" />
      <stop
         style="stop-color:#c27e13;stop-opacity:0.9741379;"
         offset="1"
         id="stop3809" />
    </linearGradient>
    <linearGradient
       id="linearGradient3742">
      <stop
         style="stop-color:#666864;stop-opacity:1;"
         offset="0"
         id="stop3744" />
      <stop
         id="stop3750"
         offset="0.5"
         style="stop-color:#494a47;stop-opacity:0.49803922;" />
      <stop
         style="stop-color:#666864;stop-opacity:1;"
         offset="1"
         id="stop3746" />
    </linearGradient>
    <linearGradient
       inkscape:collect="always"
       id="linearGradient2257">
      <stop
         style="stop-color:#ffffff;stop-opacity:1;"
         offset="0"
         id="stop2259" />
      <stop
         style="stop-color:#ffffff;stop-opacity:0;"
         offset="1"
         id="stop2261" />
    </linearGradient>
    <linearGradient
       id="linearGradient3087">
      <stop
         style="stop-color:#3465a4;stop-opacity:1;"
         offset="0"
         id="stop3089" />
      <stop
         id="stop3095"
         offset="0"
         style="stop-color:#9fbce1;stop-opacity:1;" />
      <stop
         style="stop-color:#6b95ca;stop-opacity:1;"
         offset="0"
         id="stop2242" />
      <stop
         id="stop2244"
         offset="0.75"
         style="stop-color:#3d6aa5;stop-opacity:1;" />
      <stop
         style="stop-color:#386eb4;stop-opacity:1;"
         offset="1"
         id="stop3091" />
    </linearGradient>
    <linearGradient
       id="linearGradient3077">
      <stop
         style="stop-color:#98a0a9;stop-opacity:1;"
         offset="0"
         id="stop3079" />
      <stop
         style="stop-color:#c3d0dd;stop-opacity:1;"
         offset="1"
         id="stop3081" />
    </linearGradient>
    <linearGradient
       id="linearGradient3061">
      <stop
         style="stop-color:#ffffff;stop-opacity:1;"
         offset="0"
         id="stop3063" />
      <stop
         style="stop-color:#000000;stop-opacity:1;"
         offset="1"
         id="stop3065" />
    </linearGradient>
    <linearGradient
       id="linearGradient3049">
      <stop
         style="stop-color:#b6b6b6;stop-opacity:1;"
         offset="0"
         id="stop3051" />
      <stop
         id="stop2262"
         offset="0.5"
         style="stop-color:#f2f2f2;stop-opacity:1;" />
      <stop
         style="stop-color:#fafafa;stop-opacity:1;"
         offset="0.67612958"
         id="stop2264" />
      <stop
         id="stop2268"
         offset="0.84051722"
         style="stop-color:#d8d8d8;stop-opacity:1;" />
      <stop
         id="stop2266"
         offset="0.875"
         style="stop-color:#f2f2f2;stop-opacity:1;" />
      <stop
         style="stop-color:#dbdbdb;stop-opacity:1;"
         offset="1"
         id="stop3053" />
    </linearGradient>
    <linearGradient
       inkscape:collect="always"
       id="linearGradient3041">
      <stop
         style="stop-color:#000000;stop-opacity:1;"
         offset="0"
         id="stop3043" />
      <stop
         style="stop-color:#000000;stop-opacity:0;"
         offset="1"
         id="stop3045" />
    </linearGradient>
    <linearGradient
       inkscape:collect="always"
       xlink:href="#linearGradient3049"
       id="linearGradient3055"
       x1="19.648342"
       y1="42.253601"
       x2="20.631224"
       y2="6.7758031"
       gradientUnits="userSpaceOnUse"
       gradientTransform="matrix(0.87827,0,0,0.87827,-0.9434039,3.282804)" />
    <linearGradient
       inkscape:collect="always"
       xlink:href="#linearGradient3061"
       id="linearGradient3067"
       x1="50.152931"
       y1="-3.6324477"
       x2="25.291086"
       y2="-4.3002653"
       gradientUnits="userSpaceOnUse"
       gradientTransform="matrix(0.87826988,0,0,0.87826988,1.6925621,2.9668149)" />
    <radialGradient
       inkscape:collect="always"
       xlink:href="#linearGradient3041"
       id="radialGradient2260"
       gradientUnits="userSpaceOnUse"
       gradientTransform="matrix(1,0,0,0.374558,0,24.47041)"
       cx="24.8125"
       cy="39.125"
       fx="24.8125"
       fy="39.125"
       r="17.6875" />
    <linearGradient
       inkscape:collect="always"
       xlink:href="#linearGradient2257"
       id="linearGradient3139"
       gradientUnits="userSpaceOnUse"
       gradientTransform="matrix(1.007254,-0.02636526,0.02636526,1.007254,1.0126591,-1.2060461)"
       x1="12.004697"
       y1="35.688461"
       x2="10.650805"
       y2="33.194965" />
    <radialGradient
       inkscape:collect="always"
       xlink:href="#linearGradient3041"
       id="radialGradient3145"
       gradientUnits="userSpaceOnUse"
       gradientTransform="matrix(0.836071,0,0,0.25673554,-5.9570064,30.038066)"
       cx="24.8125"
       cy="39.125"
       fx="24.8125"
       fy="39.125"
       r="17.6875" />
    <filter
       y="0"
       x="0"
       filterUnits="userSpaceOnUse"
       id="ShadowBlur">
      <feGaussianBlur
         id="feGaussianBlur6"
         stdDeviation="2"
         in="SourceGraphic" />
    </filter>
    <clipPath
       id="clipoutline2"
       clipPathUnits="userSpaceOnUse">
      <path
         d="m 55.8,12 0.76,0.16 c 8.84,-2.94 28.68,8.64 24.26,18.96 -1.12,1.62 -0.93,4.5 0.42,6.31 L 56.43,62.25 c -1.39,-1.39 -4.48,-1.36 -5.9,0 L 9.5,101.63 c -3.74,3.59 -0.8,6.64 0.78,8.25 l 7.36,7.36 c 1.61,1.6 5.86,3.76 8.88,0.56 L 65.24,76.99 c 1.35,-1.42 1.36,-4.47 0,-5.87 0,0 0.01,-0.02 0,-0.02 L 90.15,46.2 c 2.63,2.37 5.113827,2.574854 7.47,1.93 4.55057,-1.245432 7.08725,3.206643 9.81,6.46 l -1.23,1.21 c -1.82,1.84 -1.65,4.94 0.39,6.98 2.04,2.04 5.15,2.21 6.97,0.39 l 8.14,-8.13 c 1.82,-1.84 1.65,-4.94 -0.4,-6.97 -1.84,-1.85 -4.51,-2.09 -6.37,-0.77 -5.58,-6.26 -2.65,-7.2 -10.01,-15.35 L 91.13,17.86 C 81.2,8.12 68.3,8.13 55.8,12 Z"
         id="outline2"
         inkscape:connector-curvature="0" />
    </clipPath>
    <clipPath
       id="clipoutline1"
       clipPathUnits="userSpaceOnUse">
      <path
         d="m 22.42,17.2 12.96,12.95 -2.5,8.78 -8.78,2.5 -12.96,-12.96 -5.86,5.86 14.89,21.46 17.56,-3.34 61.63,65.62 c 9.44,9.51 22.17,-4.75 13.34,-12.87 L 46.85,42.92 50.86,25.16 28.72,10.89 Z m 81.06,91.97 c 1.68,-1.68 4.4,-1.68 6.08,0 1.68,1.68 1.68,4.4 0,6.08 -1.68,1.67 -4.4,1.67 -6.08,0 -1.68,-1.68 -1.68,-4.4 0,-6.08 z"
         id="outline1"
         inkscape:connector-curvature="0" />
    </clipPath>
    <linearGradient
       gradientUnits="userSpaceOnUse"
       gradientTransform="translate(-0.30267,-3.20138)"
       y2="86.68"
       x2="84.300003"
       y1="66.199997"
       x1="73.879997"
       id="lgdg"
       xlink:href="#BlackTransparent" />
    <linearGradient
       gradientTransform="matrix(0.26,0,0,0.26,-106.57,101.57)"
       gradientUnits="userSpaceOnUse"
       y2="-241.2"
       x2="655.41998"
       y1="-137.5"
       x1="550.96002"
       id="lg55"
       xlink:href="#WhiteTransparent" />
    <linearGradient
       gradientTransform="matrix(0.2,0,0,0.2,-80.94,88.3)"
       gradientUnits="userSpaceOnUse"
       y2="-186.25999"
       x2="607.65997"
       y1="-252.60001"
       x1="646.23999"
       id="lg51"
       xlink:href="#WhiteTransparent" />
    <linearGradient
       y2="185.8"
       x2="71.769997"
       y1="189.14"
       x1="75.099998"
       id="lg19"
       xlink:href="#BlackTransparent"
       gradientTransform="matrix(1.05,0,0,1.05,0.13,-140.54)" />
    <linearGradient
       spreadMethod="pad"
       gradientTransform="matrix(0.0775,0.0775,-0.36,0.36,78.84,-44.8)"
       gradientUnits="userSpaceOnUse"
       y2="124"
       x2="626.09998"
       y1="124"
       x1="577.03003"
       id="lg16"
       xlink:href="#WhiteTransparent" />
    <linearGradient
       gradientTransform="matrix(0.3,0.3,-0.09,0.09,78.84,-44.8)"
       gradientUnits="userSpaceOnUse"
       y2="368.26999"
       x2="146.14999"
       y1="288.57001"
       x1="146.14999"
       id="lg12"
       xlink:href="#WhiteTransparent" />
    <linearGradient
       gradientTransform="matrix(0.33,0.33,-0.0944,0.0944,9.03,-48.1)"
       gradientUnits="userSpaceOnUse"
       y2="-1.72"
       x2="258.95999"
       y1="62.740002"
       x1="258.95999"
       id="lg09"
       xlink:href="#WhiteTransparent" />
    <linearGradient
       spreadMethod="pad"
       gradientTransform="matrix(0.0998,0.0998,-0.28,0.28,78.84,-44.8)"
       gradientUnits="userSpaceOnUse"
       y2="286.56"
       x2="419.88"
       y1="286.56"
       x1="543.09998"
       id="lg05"
       xlink:href="#BlackTransparent" />
    <linearGradient
       gradientTransform="matrix(0.0807,0.0775,-0.35,0.36,77.14,-45.89)"
       gradientUnits="userSpaceOnUse"
       y2="254.83"
       x2="615.59003"
       y1="254.36"
       x1="512.70001"
       id="lg02"
       xlink:href="#WhiteTransparent" />
    <linearGradient
       gradientTransform="matrix(0.1,0.1,-0.22,0.2,75.6,-33.53)"
       gradientUnits="userSpaceOnUse"
       y2="118.3"
       x2="638.29999"
       y1="69.989998"
       x1="637.03003"
       id="lg1999"
       xlink:href="#WhiteTransparent" />
    <linearGradient
       id="BlackTransparent">
      <stop
         id="stop3272"
         offset="0"
         style="stop-color:black;stop-opacity:1" />
      <stop
         id="stop3274"
         offset="1"
         style="stop-color:black;stop-opacity:0" />
    </linearGradient>
    <linearGradient
       id="WhiteTransparent">
      <stop
         id="stop3267"
         offset="0"
         style="stop-color:white;stop-opacity:1" />
      <stop
         id="stop3269"
         offset="1"
         style="stop-color:white;stop-opacity:0" />
    </linearGradient>
    <filter
       y="0"
       x="0"
       filterUnits="userSpaceOnUse"
       id="ShadowBlur-3">
      <feGaussianBlur
         id="feGaussianBlur6-4"
         stdDeviation="2"
         in="SourceGraphic" />
    </filter>
    <clipPath
       id="clipoutline2-5"
       clipPathUnits="userSpaceOnUse">
      <path
         d="m 55.8,12 0.76,0.16 c 8.84,-2.94 28.68,8.64 24.26,18.96 -1.12,1.62 -0.93,4.5 0.42,6.31 L 56.43,62.25 c -1.39,-1.39 -4.48,-1.36 -5.9,0 L 9.5,101.63 c -3.74,3.59 -0.8,6.64 0.78,8.25 l 7.36,7.36 c 1.61,1.6 5.86,3.76 8.88,0.56 L 65.24,76.99 c 1.35,-1.42 1.36,-4.47 0,-5.87 0,0 0.01,-0.02 0,-0.02 L 90.15,46.2 c 2.63,2.37 5.113827,2.574854 7.47,1.93 4.55057,-1.245432 7.08725,3.206643 9.81,6.46 l -1.23,1.21 c -1.82,1.84 -1.65,4.94 0.39,6.98 2.04,2.04 5.15,2.21 6.97,0.39 l 8.14,-8.13 c 1.82,-1.84 1.65,-4.94 -0.4,-6.97 -1.84,-1.85 -4.51,-2.09 -6.37,-0.77 -5.58,-6.26 -2.65,-7.2 -10.01,-15.35 L 91.13,17.86 C 81.2,8.12 68.3,8.13 55.8,12 Z"
         id="outline2-9"
         inkscape:connector-curvature="0" />
    </clipPath>
    <clipPath
       id="clipoutline1-1"
       clipPathUnits="userSpaceOnUse">
      <path
         d="m 22.42,17.2 12.96,12.95 -2.5,8.78 -8.78,2.5 -12.96,-12.96 -5.86,5.86 14.89,21.46 17.56,-3.34 61.63,65.62 c 9.44,9.51 22.17,-4.75 13.34,-12.87 L 46.85,42.92 50.86,25.16 28.72,10.89 Z m 81.06,91.97 c 1.68,-1.68 4.4,-1.68 6.08,0 1.68,1.68 1.68,4.4 0,6.08 -1.68,1.67 -4.4,1.67 -6.08,0 -1.68,-1.68 -1.68,-4.4 0,-6.08 z"
         id="outline1-3"
         inkscape:connector-curvature="0" />
    </clipPath>
    <linearGradient
       gradientUnits="userSpaceOnUse"
       gradientTransform="translate(-0.30267,-3.20138)"
       y2="86.68"
       x2="84.300003"
       y1="66.199997"
       x1="73.879997"
       id="lgdg-1"
       xlink:href="#BlackTransparent-0" />
    <linearGradient
       gradientTransform="matrix(0.26,0,0,0.26,-106.57,101.57)"
       gradientUnits="userSpaceOnUse"
       y2="-241.2"
       x2="655.41998"
       y1="-137.5"
       x1="550.96002"
       id="lg55-4"
       xlink:href="#WhiteTransparent-1" />
    <linearGradient
       gradientTransform="matrix(0.2,0,0,0.2,-80.94,88.3)"
       gradientUnits="userSpaceOnUse"
       y2="-186.25999"
       x2="607.65997"
       y1="-252.60001"
       x1="646.23999"
       id="lg51-0"
       xlink:href="#WhiteTransparent-1" />
    <linearGradient
       y2="6037.5259"
       x2="2375.4978"
       y1="6145.3076"
       x1="2482.957"
       id="lg19-8"
       xlink:href="#BlackTransparent-0"
       gradientUnits="userSpaceOnUse" />
    <linearGradient
       spreadMethod="pad"
       gradientTransform="matrix(0.0775,0.0775,-0.36,0.36,78.84,-44.8)"
       gradientUnits="userSpaceOnUse"
       y2="124"
       x2="626.09998"
       y1="124"
       x1="577.03003"
       id="lg16-0"
       xlink:href="#WhiteTransparent-1" />
    <linearGradient
       gradientTransform="matrix(0.3,0.3,-0.09,0.09,78.84,-44.8)"
       gradientUnits="userSpaceOnUse"
       y2="368.26999"
       x2="146.14999"
       y1="288.57001"
       x1="146.14999"
       id="lg12-5"
       xlink:href="#WhiteTransparent-1" />
    <linearGradient
       gradientTransform="matrix(0.33,0.33,-0.0944,0.0944,9.03,-48.1)"
       gradientUnits="userSpaceOnUse"
       y2="-1.72"
       x2="258.95999"
       y1="62.740002"
       x1="258.95999"
       id="lg09-3"
       xlink:href="#WhiteTransparent-1" />
    <linearGradient
       spreadMethod="pad"
       gradientTransform="matrix(0.0998,0.0998,-0.28,0.28,78.84,-44.8)"
       gradientUnits="userSpaceOnUse"
       y2="286.56"
       x2="419.88"
       y1="286.56"
       x1="543.09998"
       id="lg05-6"
       xlink:href="#BlackTransparent-0" />
    <linearGradient
       gradientTransform="matrix(0.0807,0.0775,-0.35,0.36,77.14,-45.89)"
       gradientUnits="userSpaceOnUse"
       y2="254.83"
       x2="615.59003"
       y1="254.36"
       x1="512.70001"
       id="lg02-7"
       xlink:href="#WhiteTransparent-1" />
    <linearGradient
       gradientTransform="matrix(0.1,0.1,-0.22,0.2,75.6,-33.53)"
       gradientUnits="userSpaceOnUse"
       y2="118.3"
       x2="638.29999"
       y1="69.989998"
       x1="637.03003"
       id="lg1999-8"
       xlink:href="#WhiteTransparent-1" />
    <linearGradient
       id="BlackTransparent-0">
      <stop
         id="stop3550"
         offset="0"
         style="stop-color:black;stop-opacity:1" />
      <stop
         id="stop3552"
         offset="1"
         style="stop-color:black;stop-opacity:0" />
    </linearGradient>
    <linearGradient
       id="WhiteTransparent-1">
      <stop
         id="stop3545"
         offset="0"
         style="stop-color:white;stop-opacity:1" />
      <stop
         id="stop3547"
         offset="1"
         style="stop-color:white;stop-opacity:0" />
    </linearGradient>
    <linearGradient
       inkscape:collect="always"
       xlink:href="#linearGradient3742"
       id="linearGradient3748"
       x1="-32.163666"
       y1="11.982862"
       x2="-34.732647"
       y2="14.757363"
       gradientUnits="userSpaceOnUse"
       gradientTransform="translate(69.519608,-1.684877)" />
    <linearGradient
       inkscape:collect="always"
       xlink:href="#linearGradient3077"
       id="linearGradient3758"
       gradientUnits="userSpaceOnUse"
       gradientTransform="matrix(0.87827,0,0,0.87827,1.8671111,3.903835)"
       x1="29.555725"
       y1="17.722818"
       x2="30.433241"
       y2="18.629581" />
    <linearGradient
       inkscape:collect="always"
       xlink:href="#linearGradient3077"
       id="linearGradient3760"
       gradientUnits="userSpaceOnUse"
       gradientTransform="matrix(0.87827,0,0,0.87827,1.8671111,3.903835)"
       x1="38.227654"
       y1="13.602527"
       x2="37.53537"
       y2="6.6285896" />
    <linearGradient
       inkscape:collect="always"
       xlink:href="#linearGradient3805"
       id="linearGradient3811"
       x1="15.909903"
       y1="29.261671"
       x2="18.384775"
       y2="31.736544"
       gradientUnits="userSpaceOnUse" />
    <linearGradient
       inkscape:collect="always"
       xlink:href="#linearGradient3742"
       id="linearGradient3820"
       gradientUnits="userSpaceOnUse"
       gradientTransform="rotate(0.6113696,125.96573,6445.6958)"
       x1="-32.163666"
       y1="11.982862"
       x2="-34.732647"
       y2="14.757363" />
    <linearGradient
       gradientTransform="rotate(-45,103.70163,-125.15967)"
       inkscape:collect="always"
       xlink:href="#linearGradient3805-8"
       id="linearGradient3811-9"
       x1="15.909903"
       y1="29.261671"
       x2="18.384775"
       y2="31.736544"
       gradientUnits="userSpaceOnUse" />
    <linearGradient
       id="linearGradient3805-8">
      <stop
         style="stop-color:#c27e13;stop-opacity:1;"
         offset="0"
         id="stop3807-3" />
      <stop
         id="stop3813-6"
         offset="0.26878971"
         style="stop-color:#c27e13;stop-opacity:0.49803922;" />
      <stop
         style="stop-color:#c27e13;stop-opacity:0.9741379;"
         offset="1"
         id="stop3809-4" />
    </linearGradient>
    <linearGradient
       inkscape:collect="always"
       xlink:href="#linearGradient3077-1"
       id="linearGradient3758-7"
       gradientUnits="userSpaceOnUse"
       gradientTransform="matrix(0.87827,0,0,0.87827,150.91626,23.296793)"
       x1="29.555725"
       y1="17.722818"
       x2="30.433241"
       y2="18.629581" />
    <linearGradient
       id="linearGradient3077-1">
      <stop
         style="stop-color:#98a0a9;stop-opacity:1;"
         offset="0"
         id="stop3079-5" />
      <stop
         style="stop-color:#c3d0dd;stop-opacity:1;"
         offset="1"
         id="stop3081-9" />
    </linearGradient>
    <linearGradient
       inkscape:collect="always"
       xlink:href="#linearGradient3061-4"
       id="linearGradient3067-4"
       x1="50.152931"
       y1="-3.6324477"
       x2="25.291086"
       y2="-4.3002653"
       gradientUnits="userSpaceOnUse"
       gradientTransform="matrix(0.87826988,0,0,0.87826988,120.30601,-90.957017)" />
    <linearGradient
       id="linearGradient3061-4">
      <stop
         style="stop-color:#ffffff;stop-opacity:1;"
         offset="0"
         id="stop3063-2" />
      <stop
         style="stop-color:#000000;stop-opacity:1;"
         offset="1"
         id="stop3065-0" />
    </linearGradient>
    <radialGradient
       inkscape:collect="always"
       xlink:href="#linearGradient3041-0"
       id="radialGradient3145-0"
       gradientUnits="userSpaceOnUse"
       gradientTransform="matrix(1,0,0,0.374558,0,24.47041)"
       cx="24.8125"
       cy="39.125"
       fx="24.8125"
       fy="39.125"
       r="17.6875" />
    <linearGradient
       inkscape:collect="always"
       id="linearGradient3041-0">
      <stop
         style="stop-color:#000000;stop-opacity:1;"
         offset="0"
         id="stop3043-0" />
      <stop
         style="stop-color:#000000;stop-opacity:0;"
         offset="1"
         id="stop3045-8" />
    </linearGradient>
    <linearGradient
       inkscape:collect="always"
       xlink:href="#linearGradient3077-1"
       id="linearGradient3760-1"
       gradientUnits="userSpaceOnUse"
       gradientTransform="matrix(0.87827,0,0,0.87827,1.8671111,3.903835)"
       x1="38.227654"
       y1="13.602527"
       x2="37.53537"
       y2="6.6285896" />
    <linearGradient
       id="linearGradient3850">
      <stop
         style="stop-color:#98a0a9;stop-opacity:1;"
         offset="0"
         id="stop3852" />
      <stop
         style="stop-color:#c3d0dd;stop-opacity:1;"
         offset="1"
         id="stop3854" />
    </linearGradient>
    <linearGradient
       y2="6.6285896"
       x2="37.53537"
       y1="13.602527"
       x1="38.227654"
       gradientTransform="matrix(0.87827,0,0,0.87827,150.91626,23.296793)"
       gradientUnits="userSpaceOnUse"
       id="linearGradient3863"
       xlink:href="#linearGradient3077-1"
       inkscape:collect="always" />
    <linearGradient
       inkscape:collect="always"
       xlink:href="#linearGradient3805-8"
       id="linearGradient4719"
       x1="166.95419"
       y1="48.512695"
       x2="171.73305"
       y2="48.512695"
       gradientUnits="userSpaceOnUse" />
    <linearGradient
       inkscape:collect="always"
       xlink:href="#linearGradient3805-8"
       id="linearGradient4725"
       gradientUnits="userSpaceOnUse"
       x1="166.95419"
       y1="48.512695"
       x2="171.73305"
       y2="48.512695" />
  </defs>
  <sodipodi:namedview
     stroke="#204a87"
     fill="#3465a4"
     id="base"
     pagecolor="#ffffff"
     bordercolor="#666666"
     borderopacity="0.25490196"
     inkscape:pageopacity="0.0"
     inkscape:pageshadow="2"
     inkscape:zoom="5.6568542"
     inkscape:cx="-4.8082145"
     inkscape:cy="16.926672"
     inkscape:current-layer="layer1"
     showgrid="false"
     inkscape:grid-bbox="true"
     inkscape:document-units="px"
     inkscape:showpageshadow="false"
     inkscape:window-width="1366"
     inkscape:window-height="705"
     inkscape:window-x="-8"
     inkscape:window-y="-8"
     inkscape:window-maximized="1"
     showguides="true"
     inkscape:guide-bbox="true"
     inkscape:object-nodes="true"
     inkscape:snap-page="true"
     fit-margin-top="0"
     fit-margin-left="0"
     fit-margin-right="0"
     fit-margin-bottom="0">
    <inkscape:grid
       type="xygrid"
       id="grid3762"
       originx="3.5527136e-015"
       originy="5" />
    <sodipodi:guide
       orientation="1,0"
       position="169.35207,15.556349"
       id="guide3928"
       inkscape:locked="false" />
  </sodipodi:namedview>
  <metadata
     id="metadata4">
    <rdf:RDF>
      <cc:Work
         rdf:about="">
        <dc:format>image/svg+xml</dc:format>
        <dc:type
           rdf:resource="http://purl.org/dc/dcmitype/StillImage" />
        <dc:creator>
          <cc:Agent>
            <dc:title>Jakub Steiner</dc:title>
          </cc:Agent>
        </dc:creator>
        <dc:source>http://jimmac.musichall.cz</dc:source>
        <cc:license
           rdf:resource="http://creativecommons.org/licenses/by-sa/2.0/" />
        <dc:title></dc:title>
        <dc:subject>
          <rdf:Bag>
            <rdf:li>preferences</rdf:li>
            <rdf:li>settings</rdf:li>
            <rdf:li>control panel</rdf:li>
            <rdf:li>tweaks</rdf:li>
            <rdf:li>system</rdf:li>
          </rdf:Bag>
        </dc:subject>
      </cc:Work>
      <cc:License
         rdf:about="http://creativecommons.org/licenses/by-sa/2.0/">
        <cc:permits
           rdf:resource="http://web.resource.org/cc/Reproduction" />
        <cc:permits
           rdf:resource="http://web.resource.org/cc/Distribution" />
        <cc:requires
           rdf:resource="http://web.resource.org/cc/Notice" />
        <cc:requires
           rdf:resource="http://web.resource.org/cc/Attribution" />
        <cc:permits
           rdf:resource="http://web.resource.org/cc/DerivativeWorks" />
        <cc:requires
           rdf:resource="http://web.resource.org/cc/ShareAlike" />
      </cc:License>
    </rdf:RDF>
  </metadata>
  <g
     id="layer1"
     inkscape:label="Layer 1"
     inkscape:groupmode="layer"
     transform="translate(0,-24)">
    <g
       id="g958"
       transform="matrix(0.5,0,0,0.5,0,24)">
      <rect
         y="0"
         x="0"
         height="48"
         width="48"
         id="rect135"
         style="opacity:1;fill:#ff00ff;fill-opacity:1;stroke:none;stroke-width:3.77952766;stroke-linecap:butt;stroke-linejoin:miter;stroke-miterlimit:4;stroke-dasharray:none;stroke-opacity:1;paint-order:fill markers stroke" />
      <ellipse
         style="color:#000000;display:inline;overflow:visible;visibility:visible;opacity:0.19886367;fill:url(#radialGradient2260);fill-opacity:1;fill-rule:nonzero;stroke:none;stroke-width:1;marker:none"
         id="path2258"
         transform="matrix(0.751118,0,0,0.578703,13.560478,17.678533)"
         cx="24.8125"
         cy="39.125"
         rx="17.6875"
         ry="6.625" />
      <ellipse
         ry="4.5410137"
         rx="14.788006"
         cy="40.082851"
         cx="14.788006"
         id="path3039"
         style="color:#000000;display:inline;overflow:visible;visibility:visible;opacity:0.3125;fill:url(#radialGradient3145);fill-opacity:1;fill-rule:nonzero;stroke:none;stroke-width:0.75701594;marker:none" />
      <path
         inkscape:connector-curvature="0"
         sodipodi:nodetypes="cczcccccccccsc"
         id="path2140"
         d="M 14.426321,19.530799 33.41891,38.962523 c 0.768486,0.87827 3.20351,1.557061 4.830485,0 1.571126,-1.503613 1.207621,-3.622864 -0.329351,-5.159837 L 19.695941,14.261179 c 2.25,-6.25 -2.303889,-11.499568 -8.178889,-10.374568 l -1.262514,1.1527294 3.952215,3.7326476 0.219568,3.293516 -2.950842,2.693603 L 7.94908,14.370963 4.3262171,10.967667 c 0,0 -1.270122,1.254904 -1.270122,1.254904 -0.590763,5.641317 5.3077259,10.683228 11.3702259,7.308228 z"
         style="color:#000000;display:inline;overflow:visible;visibility:visible;fill:url(#linearGradient3055);fill-opacity:1;fill-rule:nonzero;stroke:#020202;stroke-width:0.9999997;stroke-linecap:butt;stroke-linejoin:miter;stroke-miterlimit:4;stroke-dasharray:none;stroke-dashoffset:0;stroke-opacity:1;marker:none" />
      <path
         inkscape:connector-curvature="0"
         style="color:#000000;display:inline;overflow:visible;visibility:visible;opacity:0.42613639;fill:none;stroke:#ffffff;stroke-width:0.99999917;stroke-linecap:butt;stroke-linejoin:miter;stroke-miterlimit:4;stroke-dasharray:none;stroke-dashoffset:0;stroke-opacity:1;marker:none"
         d="m 14.636993,18.255223 19.202882,20.027612 c 0.594907,0.679893 2.479927,1.205365 3.739414,0 1.216253,-1.163989 0.934853,-2.80456 -0.25496,-3.994374 L 18.832797,14.667306 c 1.5,-6.5 -1.858788,-10.0046375 -6.858788,-9.8796375 l -0.270131,0.2733768 3.602923,3.2362667 0.130166,4.181794 -3.613917,3.298483 -4.242306,-0.458209 -3.1765819,-2.991481 -0.352638,0.430059 c -0.3125,5.96875 6.4917189,8.684765 10.5854689,5.497265 z"
         id="path3057"
         sodipodi:nodetypes="cczccccccccccc" />
      <rect
         transform="rotate(45.73819)"
         ry="0.88388062"
         rx="0.88388062"
         y="-1.3018785"
         x="24.549597"
         height="2.055491"
         width="23.268272"
         id="rect3059"
         style="color:#000000;display:inline;overflow:visible;visibility:visible;opacity:0.17045456;fill:none;stroke:url(#linearGradient3067);stroke-width:0.99999708;stroke-linecap:butt;stroke-linejoin:miter;stroke-miterlimit:4;stroke-dasharray:none;stroke-dashoffset:0;stroke-opacity:1;marker:none" />
      <circle
         transform="matrix(0.87827,0,0,0.87827,-1.0531879,3.392587)"
         id="path2146"
         style="color:#000000;display:inline;overflow:visible;visibility:visible;fill:#ffffff;fill-opacity:1;fill-rule:nonzero;stroke:#a1a1a1;stroke-width:1.13860166;stroke-linecap:butt;stroke-linejoin:miter;stroke-miterlimit:4;stroke-dasharray:none;stroke-dashoffset:0;stroke-opacity:1;marker:none"
         cx="41.875"
         cy="37.5"
         r="1.375" />
      <g
         transform="rotate(45,118.25015,-143.03387)"
         id="g4721">
        <path
           id="path3930"
           style="color:#000000;display:inline;overflow:visible;visibility:visible;fill:#e9b96e;fill-opacity:1;fill-rule:nonzero;stroke:#8f5902;stroke-width:0.9999997;stroke-linecap:butt;stroke-linejoin:miter;stroke-miterlimit:4;stroke-dashoffset:0;stroke-opacity:1;marker:none"
           d="m 171.04228,65.702992 c 2.28219,-0.05133 2.24901,-2.610868 2.18061,-5.344146 -0.11958,-4.781402 -0.82929,-4.219524 -0.97878,-10.196283 -0.14948,-5.976752 0.39385,-17.60825 0.39385,-17.60825 -0.0476,-1.904867 0.28281,-4.437364 -3.28589,-4.203494 -3.5687,-0.23387 -3.23825,2.298627 -3.28589,4.203494 0,0 0.54333,11.631498 0.39385,17.60825 -0.14949,5.976759 -0.8592,5.414881 -0.97878,10.196283 -0.0684,2.733278 -0.10158,5.292819 2.18061,5.344146 0,0 -0.16595,0.01887 1.69021,0.01887 1.85616,0 1.69021,-0.01887 1.69021,-0.01887 z"
           inkscape:connector-curvature="0"
           sodipodi:nodetypes="ccscccscccc" />
        <path
           style="color:#000000;font-style:normal;font-variant:normal;font-weight:normal;font-stretch:normal;font-size:medium;line-height:normal;font-family:Sans;-inkscape-font-specification:Sans;text-indent:0;text-align:start;text-decoration:none;text-decoration-line:none;letter-spacing:normal;word-spacing:normal;text-transform:none;writing-mode:lr-tb;direction:ltr;baseline-shift:baseline;text-anchor:start;display:inline;overflow:visible;visibility:visible;fill:url(#linearGradient4725);fill-opacity:1;fill-rule:nonzero;stroke:none;stroke-width:3;marker:none;enable-background:accumulate"
           d="m 169.25,29.84375 h 0.0937 0.0937 c 0.71741,-0.04701 1.09477,0.07913 1.25,0.15625 0.15523,0.07712 0.17681,0.08319 0.25,0.25 0.13862,0.315936 0.16244,1.231053 0.1875,2.21875 0,0 5e-5,0.123852 0,0.125 -0.008,0.161592 -0.52689,11.520677 -0.375,17.59375 0.0763,3.048871 0.31707,4.559136 0.53125,5.78125 0.21418,1.222114 0.3796,2.122413 0.4375,4.4375 0.0341,1.360997 0.0171,2.612163 -0.15625,3.25 -0.0866,0.318919 -0.18098,0.434184 -0.21875,0.46875 h -3.96885 c -0.0378,-0.03457 -0.16335,-0.149831 -0.25,-0.46875 -0.1733,-0.637837 -0.19031,-1.889003 -0.15625,-3.25 0.0579,-2.315087 0.25457,-3.215386 0.46875,-4.4375 0.21418,-1.222114 0.45499,-2.732379 0.53125,-5.78125 0.15189,-6.073076 -0.39864,-17.432171 -0.40625,-17.59375 3.5e-4,-0.01399 -3.5e-4,-0.0173 0,-0.03125 -3e-5,-6.46e-4 0,-0.09375 0,-0.09375 0.0251,-0.987718 0.0489,-1.902811 0.1875,-2.21875 0.0732,-0.166809 0.0948,-0.172884 0.25,-0.25 0.15523,-0.07712 0.53259,-0.203264 1.25,-0.15625 z"
           id="path3933"
           inkscape:connector-curvature="0"
           sodipodi:nodetypes="cccsscccsccccscssccccccc" />
      </g>
      <path
         id="path3732"
         d="m 20.936498,4.4870837 0.276863,0.045501 c 3.143011,-1.2034691 10.489872,2.6561487 9.060944,6.4518673 -0.378112,0.602706 -0.263142,1.639044 0.253235,2.270527 l 3.356929,3.02157 c 0.987355,0.812968 1.887075,0.846884 2.727034,0.576196 1.622246,-0.522792 2.609464,1.043106 3.644524,2.173385 l -0.424417,0.456507 c -0.627198,0.693382 -0.515903,1.80944 0.253204,2.512816 0.769105,0.703375 1.894251,0.714625 2.521771,0.02851 l 2.806767,-3.065275 c 0.627199,-0.693381 0.515902,-1.80944 -0.256651,-2.509045 -0.693865,-0.638026 -1.66134,-0.681627 -2.311353,-0.175271 -2.114686,-2.169353 -1.072386,-2.555804 -3.859926,-5.378584 L 33.781583,6.032837 C 30.040907,2.6776255 25.385429,2.8890593 20.936498,4.4871315 Z"
         inkscape:connector-curvature="0"
         style="fill:url(#linearGradient3820);fill-opacity:1;stroke:none"
         sodipodi:nodetypes="cccccsccsccccccc" />
      <path
         inkscape:connector-curvature="0"
         id="path3723"
         d="M 26.797969,3.3563577 C 24.866395,3.3421365 22.888288,3.7822794 20.941881,4.481436 l 0.280567,0.065497 c 3.143011,-1.2034692 10.48572,2.6450352 9.056792,6.440755 -0.378112,0.602705 -0.259152,1.621389 0.257226,2.252873 l 3.342797,3.035841 c 0.987355,0.812968 1.903882,0.862499 2.743841,0.591811 1.622247,-0.522792 2.598308,1.033612 3.633368,2.163892 l -0.411229,0.464389 c -0.627198,0.693381 -0.514548,1.799482 0.254559,2.502858 0.769105,0.703375 1.872338,0.712791 2.499858,0.02668 L 45.413762,18.96213 C 46.040961,18.268749 45.931757,17.158877 45.159204,16.459272 44.465338,15.821246 43.498515,15.772 42.848503,16.278356 40.733817,14.109003 41.787034,13.71601 38.999494,10.89323 L 33.769895,6.0246515 C 31.665765,4.137345 29.281422,3.3746408 26.797969,3.3563577 Z m 2.292362,1.8995681 c 1.283075,0.3367049 2.526812,0.8653608 3.667617,1.8829914 0.0071,0.00636 0.02413,-0.00605 0.03125,3.335e-4 l 5.167103,4.8679113 c 1.232278,1.259286 1.525248,1.827119 1.848551,2.488616 0.33047,0.676162 0.795472,1.628918 1.969876,2.83368 l 0.927443,0.94745 1.071443,-0.832365 c 0.04784,-0.03726 0.166434,-0.0931 0.373978,0.09775 l -3.33e-4,0.03125 c 0.237345,0.214933 0.183044,0.34259 0.152239,0.376645 l -2.814102,3.063898 c -0.01937,0.02117 -0.136289,0.08808 -0.373645,-0.128994 -0.224001,-0.204857 -0.214046,-0.331835 -0.183488,-0.37698 0.002,-0.0031 -0.0016,-0.02909 3.33e-4,-0.03125 l 0.410895,-0.43314 0.948451,-1.021188 -0.926777,-1.009947 c -0.444935,-0.485866 -0.966173,-1.22059 -1.761475,-1.862651 -0.795302,-0.642061 -2.149395,-1.147227 -3.461217,-0.724473 -0.486053,0.156636 -0.656899,0.206763 -1.247261,-0.263324 l -0.06216,-0.03191 -3.126394,-2.814769 c -0.0041,-0.005 0.0038,-0.02343 3.33e-4,-0.03125 -0.05352,-0.119538 -0.05333,-0.53729 -0.119324,-0.532553 l 0.03225,-0.09341 0.06416,-0.155574 C 32.216161,10.078639 31.899065,8.5890262 31.192202,7.4347272 30.665809,6.5751344 29.905079,5.8759524 29.090331,5.2559258 Z"
         style="color:#000000;font-style:normal;font-variant:normal;font-weight:normal;font-stretch:normal;font-size:medium;line-height:normal;font-family:Sans;-inkscape-font-specification:Sans;text-indent:0;text-align:start;text-decoration:none;text-decoration-line:none;letter-spacing:normal;word-spacing:normal;text-transform:none;writing-mode:lr-tb;direction:ltr;baseline-shift:baseline;text-anchor:start;display:inline;overflow:visible;visibility:visible;fill:#9ea499;fill-opacity:1;stroke:none;stroke-width:3;marker:none;enable-background:accumulate" />
      <path
         sodipodi:nodetypes="cccccsccsccccccc"
         style="fill:none;stroke:#000000;stroke-opacity:1"
         inkscape:connector-curvature="0"
         d="m 21.233132,4.0668778 0.275143,0.05495 c 3.182359,-1.0951953 10.392821,3.013606 8.834822,6.7581962 -0.398517,0.589412 -0.319084,1.629077 0.175379,2.277864 l 3.251549,3.134689 c 0.958954,0.846285 1.856985,0.910974 2.705717,0.669192 1.639189,-0.466965 2.572235,1.131803 3.568005,2.296844 l -0.439791,0.441715 c -0.650562,0.671508 -0.57753,1.790722 0.167054,2.520009 0.744582,0.729285 1.868684,0.779036 2.519318,0.114798 l 2.910031,-2.967418 c 0.650562,-0.67151 0.577528,-1.790724 -0.170628,-2.516359 -0.671623,-0.6614 -1.637039,-0.738087 -2.304001,-0.254274 -2.039202,-2.240456 -0.984287,-2.591009 -3.673585,-5.507538 L 34.017789,6.0513455 C 30.394136,2.5700759 25.734149,2.6220532 21.233131,4.0669256 Z"
         id="use3311" />
    </g>
  </g>
  <style
     id="style3292"
     type="text/css">
	/* Specular Highlighting */
		.low-specularity	{opacity:0.25;}
		.specularity		{opacity:0.5;}
		.high-specularity	{opacity:0.75;}
		.full-specularity	{opacity:1;}

	/* Shading */
		.low-shade	{opacity:0.25;}
		.shade		{opacity:0.5;}
		.high-shade	{opacity:0.75;}
		.full-shade	{opacity:1;}

	/* Tango palette fill/stroke */
		.black		{fill:#000;}
		.aluminium1	{fill:#eeeeec;}
		.aluminium2	{fill:#d3d7cf;}
		.aluminium6	{fill:#2e3436;}
		.chocolate3	{fill:#8f5902;}
		.chocolate2	{fill:#c17d11;}
		.aluminium4	{fill:#888a85;}

	/* Shadows: Back-Shadows &amp; Base Shadows */
		.base-shadow	{opacity:0.4;}
		.outline-big	{stroke:black;stroke-width:8;opacity:0.25;stroke-linejoin:round;}
		.outline-small	{stroke:black;stroke-width:4;opacity:0.5;stroke-linejoin:round;}
		.stroke-highlight	{fill:none;stroke:white;stroke-opacity:0.2;stroke-width:4;stroke-linejoin:round;}
	</style>
  <style
     id="style3570"
     type="text/css">
	/* Specular Highlighting */
		.low-specularity	{opacity:0.25;}
		.specularity		{opacity:0.5;}
		.high-specularity	{opacity:0.75;}
		.full-specularity	{opacity:1;}

	/* Shading */
		.low-shade	{opacity:0.25;}
		.shade		{opacity:0.5;}
		.high-shade	{opacity:0.75;}
		.full-shade	{opacity:1;}

	/* Tango palette fill/stroke */
		.black		{fill:#000;}
		.aluminium1	{fill:#eeeeec;}
		.aluminium2	{fill:#d3d7cf;}
		.aluminium6	{fill:#2e3436;}
		.chocolate3	{fill:#8f5902;}
		.chocolate2	{fill:#c17d11;}
		.aluminium4	{fill:#888a85;}

	/* Shadows: Back-Shadows &amp; Base Shadows */
		.base-shadow	{opacity:0.4;}
		.outline-big	{stroke:black;stroke-width:8;opacity:0.25;stroke-linejoin:round;}
		.outline-small	{stroke:black;stroke-width:4;opacity:0.5;stroke-linejoin:round;}
		.stroke-highlight	{fill:none;stroke:white;stroke-opacity:0.2;stroke-width:4;stroke-linejoin:round;}
	</style>
</svg>
